<?xml version="1.0" encoding="UTF-8"?>
<svg xmlns="http://www.w3.org/2000/svg" version="1.1" viewBox="0 0 1920 1080">
  <defs>
    <style>
      .cls-1 {
        fill: #fff;
        font-family: MyriadPro-Bold, 'Myriad Pro';
        font-size: 48px;
        font-weight: 700;
      }

      .cls-2 {
        fill: #fc563c;
      }
    </style>
  </defs>
  <!-- Generator: Adobe Illustrator 28.6.0, SVG Export Plug-In . SVG Version: 1.2.0 Build 709)  -->
  <g>
    <g id="_Слой_1" data-name="Слой_1">
      <polygon class="cls-2" points="834.82 583.97 743 583.97 743 496.09 834.82 496.09 841.97 496.09 873.47 554.5 876.38 554.5 875.94 496.09 894.03 496.09 894.03 583.97 869.15 583.97 835.09 524.85 834.82 583.97"/>
      <path class="cls-2" d="M912.94,496.09v87.88h67.06c-.02-5.95-.04-11.9-.06-17.85-15.67-.02-31.33-.04-47-.06v-18c12.02.02,24.04.04,36.06.06-.02-6.02-.04-12.04-.06-18.06-11.98.02-23.96.04-35.94.06l-.06-16.24h45.65l.47-17.79h-66.12Z"/>
      <path class="cls-2" d="M991.06,496.09l10.12,87.88h27.76l11.53-43.94,1.88-.03,11.76,43.97h28.71l9.41-87.88h-17.88l-7.53,65.56c-.88-.16-1.75-.33-2.63-.49-3.67-13.01-7.35-26.02-11.02-39.04l-23.29.24c-2.98,10.51-5.96,21.02-8.94,31.53-.55,2.51-1.1,5.02-1.65,7.53-.94.08-1.88.16-2.82.24-2.51-21.85-5.02-43.71-7.53-65.56h-17.88Z"/>
      <path class="cls-2" d="M1172.52,517.51c3.29-6.92-7.78-16.14-13.45-18.99-12.17-6.33-30.06-6.3-41.63,1.19-11.17,6.82-14.84,21.18-9.38,32.86,3.53,7.94,12.16,10.92,20.12,12.74,7.75,2.28,19.87,1.75,25.52,8.09,2.62,3.1,2.22,7.9-.58,10.77-5.18,5.3-16.21,5.29-22.72,2.1-5.19-2.61-8.26-8.45-14.36-9.27-5.12-1.14-13.58-.23-12.27,6.49,2.94,10.96,14,18.89,24.95,20.78,10.65,1.46,22.13,1.29,32.22-2.77,16.97-6.98,21.18-31.58,7.15-43.21-3.68-2.89-8.7-3.92-14.14-5.38-6.41-1.85-13.45-2.85-19.22-5.83-5.81-2.87-8.92-10.19-2.27-13.65,3.8-1.96,8.63-2.12,12.74-1,4.77,1.28,8.45,5.03,12.94,6.68,4.38,1.49,11.03,2.39,14.32-1.47l.07-.11Z"/>
      <text class="cls-1" transform="translate(751.71 555.21)"><tspan x="0" y="0">K/C</tspan></text>
    </g>
  </g>
</svg>